<svg id="visual" viewBox="0 0 1920 1080" width="1920" height="1080" xmlns="http://www.w3.org/2000/svg" xmlns:xlink="http://www.w3.org/1999/xlink" version="1.1"><rect x="0" y="0" width="1920" height="1080" fill="#ffffff"></rect><path d="M0 151L40 181.3C80 211.7 160 272.3 240 286C320 299.7 400 266.3 480 240C560 213.7 640 194.3 720 222.5C800 250.7 880 326.3 960 336.7C1040 347 1120 292 1200 248.2C1280 204.3 1360 171.7 1440 186.3C1520 201 1600 263 1680 288.3C1760 313.7 1840 302.3 1880 296.7L1920 291L1920 0L1880 0C1840 0 1760 0 1680 0C1600 0 1520 0 1440 0C1360 0 1280 0 1200 0C1120 0 1040 0 960 0C880 0 800 0 720 0C640 0 560 0 480 0C400 0 320 0 240 0C160 0 80 0 40 0L0 0Z" fill="#7babc4" stroke-linecap="round" stroke-linejoin="miter"></path></svg>